<svg id="Layer_1" data-name="Layer 1" xmlns="http://www.w3.org/2000/svg" viewBox="0 0 1320.21 286.65"><defs><style>.cls-1{fill:#bdbec0;}</style></defs><path class="cls-1" d="M972.25,241.35V63.58H1004V241.35Z"/><path class="cls-1" d="M1079.36,111.83c36.32,0,61.71,25.4,61.71,61a68.92,68.92,0,0,1-.76,10.41h-87.87c-4.32,0-6.35,2-6.35,7.62,0,13.21,11.94,30.22,33.52,30.22,13.46,0,25.4-6.86,30.48-18.28h31.24c-6.61,24.38-29.72,41.65-61.21,41.65-40.38,0-65.52-29-65.52-66.8C1014.6,138,1041.77,111.83,1079.36,111.83ZM1104,162.11c4.07,0,5.84-2.28,5.84-5.08,0-7.87-9.9-21.84-31.23-21.84s-32,14-32,21.84c0,3.05,1.78,5.08,5.59,5.08Z"/><path class="cls-1" d="M1129.36,241.35,1181.42,185c4.82-5.33,4.82-10.67,0-16.25l-50.54-54.35H1168l31.23,34.79c5.34,5.84,11.69,5.84,16.76,0l31.75-34.79H1282l-50,53.84c-4.82,5.33-5.08,10.92-.25,16.25l52.82,56.89h-37.33l-33.27-37.08c-5.08-5.59-11.42-5.84-16.76,0l-33,37.08Z"/><path class="cls-1" d="M324.6,241.35V63.58h73.9c38.6,0,56.89,20.06,56.89,43.42,0,11.94-4.83,20.58-13.46,27.18-2.8,1.78-4.32,3.81-4.32,6.09s1.52,4.32,4.32,6.1c15.49,8.63,22.6,22.85,22.6,40.38,0,30.22-21.59,54.6-66.79,54.6ZM401,130.12c12.44,0,20.82-8.13,20.82-19.56,0-11.94-8.38-19.81-20.82-19.81H374.12c-9.9,0-15.75,5.59-15.75,15.49v8.38c0,9.65,5.85,15.5,15.75,15.5Zm-1,84c18,0,30.48-11.42,30.48-28.44,0-17.52-12.45-29.2-30.48-29.2h-25.9c-9.9,0-15.75,5.58-15.75,15.49v26.66c0,9.91,5.85,15.49,15.75,15.49Z"/><path class="cls-1" d="M473.55,178.11c0-36.31,27.94-66.28,70.86-66.28,42.66,0,70.6,30,70.6,66.28s-27.94,66.29-70.6,66.29C501.49,244.4,473.55,214.43,473.55,178.11Zm109,0c0-22.6-14.73-40.63-38.09-40.63-23.62,0-38.35,18-38.35,40.63s14.73,40.64,38.35,40.64C567.77,218.75,582.5,200.72,582.5,178.11Z"/><path class="cls-1" d="M609.15,114.37h32l25.91,77.2c2.53,7.88,9.14,7.62,11.68,0l25.14-77.2h35.55l24.64,77.71c2.54,7.87,9.14,8.13,11.93,0l26.41-77.71h27.18l-44.44,127h-34L725.47,164.4c-2.29-6.86-9.4-6.86-11.69,0l-25.39,76.95H654.61Z"/><path class="cls-1" d="M840.27,241.35V63.58H957.4V90.75H888.27c-7.87,0-14,5.84-14,13.71v11.69c0,7.87,6.1,13.71,14,13.71H957.4V157H888.27a13.63,13.63,0,0,0-14,14v70.35Z"/><path class="cls-1" d="M161,115.66a184.47,184.47,0,0,1,51.41,28.43C250.08,102.32,260.28,50,234.62,24.24c-27-27.06-83.37-14.41-125.93,28.27C91.94,69.3,79.91,88.22,73,106.67,98.67,101.73,129.81,104.27,161,115.66Z"/><path class="cls-1" d="M212.44,144.09c-1.95,2.16-3.91,4.32-6,6.42-42.56,42.68-98.94,55.33-125.93,28.27C64.13,162.36,62.41,135.1,73,106.67c-27.7,5.33-49,19.4-56.77,40.85-15,41.29,25.51,94,90.47,117.67s129.78,9.44,144.77-31.86C262,204.56,245.39,170.27,212.44,144.09Z"/><path class="cls-1" d="M1293.17,237.1a8.52,8.52,0,1,1,8.52,8.31A8.28,8.28,0,0,1,1293.17,237.1Zm15.32,0a6.8,6.8,0,1,0-6.8,6.83A6.58,6.58,0,0,0,1308.49,237.1Zm-10,4.23V232.7H1303a2.27,2.27,0,1,1,0,4.52h-.72l3.44,4.11h-2l-3.44-4.11h-.24v4.11Zm1.6-5.56h2.76a.85.85,0,0,0,1-.84c0-.55-.4-.79-1-.79h-2.76Z"/><path class="cls-1" d="M271.26,232.7v1.62h-3.08v7h-1.84v-7h-3.13V232.7Zm9.42,0h2.76v8.65h-1.79v-6.87l-3.08,6.87h-1.14l-3.08-6.87v6.87h-1.79V232.7h2.92l2.6,5.78Z"/></svg>
